# xmcd
#
# Track frame offsets: 
#        150
#        76959
#        138587
#        141853
#        144964
#        149597
#        156308
#        174688
#        206907
#        222346
#        260785
#        277837
#        282903
#        291934
#        294841
#
# Disc length: 3948 seconds
#
# Revision: 0
# Processed by: cddbd v1.5.2PL0 Copyright (c) Steve Scherf et al.
# Submitted via: ExactAudioCopy v0.95b4
#
DISCID=fd0f6a0f
DTITLE=The Beatles  - AB  Road - Complete Purple Chick Set v1.1 Jan.25
DTITLE=Various Artist - D5  FLAC
DYEAR=1900
DGENRE=
TTITLE0=Let It Be 25.57
TTITLE1=Let It Be 25.58
TTITLE2=Crazy Feet 25.59
TTITLE3=Please Please Me 25.60
TTITLE4=Let It Be 25.61
TTITLE5=Let it Be 25.62
TTITLE6=Let It Be 25.63
TTITLE7=Instrumental 25.64
TTITLE8=Mean Mr. Mustard 25.65
TTITLE9=Let it Be 25.66
TTITLE10=Tracks Of My Tears 25.67
TTITLE11=Piece Of My Heart 25.68
TTITLE12=Little Yellow Pills 25.69
TTITLE13=Early In the Morning 25.70
TTITLE14=Let It Be 25.71
EXTD=
EXTT0=
EXTT1=
EXTT2=
EXTT3=
EXTT4=
EXTT5=
EXTT6=
EXTT7=
EXTT8=
EXTT9=
EXTT10=
EXTT11=
EXTT12=
EXTT13=
EXTT14=
PLAYORDER=
